<svg width="28" height="28" viewBox="0 0 28 28" fill="none" xmlns="http://www.w3.org/2000/svg">
<mask id="mask0_44_273" style="mask-type:alpha" maskUnits="userSpaceOnUse" x="0" y="0" width="28" height="28">
<rect width="28" height="28" fill="#D9D9D9"/>
</mask>
<g mask="url(#mask0_44_273)">
<path d="M9.46262 15.3935L15.2324 21.6542C15.6628 22.1213 15.6596 22.8413 15.2251 23.3045C14.7435 23.8179 13.9273 23.8143 13.4502 23.2967L6.2492 15.4829C5.54348 14.7171 5.54347 13.538 6.2492 12.7722L13.4502 4.9584C13.9273 4.44075 14.7435 4.43714 15.2251 4.95056C15.6596 5.41376 15.6628 6.13382 15.2324 6.60083L9.46262 12.8616H22.4008C23.1 12.8616 23.6668 13.4284 23.6668 14.1275C23.6668 14.8267 23.1 15.3935 22.4008 15.3935H9.46262Z" fill="white"/>
</g>
</svg>
