<svg width="28" height="33" viewBox="0 0 28 33" fill="none" xmlns="http://www.w3.org/2000/svg">
<path fill-rule="evenodd" clip-rule="evenodd" d="M21.3217 13.5286C20.6386 13.5286 20.0843 12.9742 20.0843 12.2912V8.74891C20.0843 5.29077 17.2713 2.47773 13.8131 2.47773H13.7867C12.1154 2.47773 10.5497 3.12118 9.36669 4.29424C8.17548 5.47226 7.51718 7.04459 7.51058 8.72086V12.2912C7.51058 12.9742 6.95622 13.5286 6.27317 13.5286C5.59013 13.5286 5.03577 12.9742 5.03577 12.2912V8.74891C5.04567 6.37309 5.96465 4.1804 7.62277 2.53713C9.28255 0.892199 11.4736 -0.0597804 13.8181 0.00291495C18.6357 0.00291495 22.5591 3.92632 22.5591 8.74891V12.2912C22.5591 12.9742 22.0047 13.5286 21.3217 13.5286Z" fill="#001833"/>
<path fill-rule="evenodd" clip-rule="evenodd" d="M7.49401 13.4116C4.72552 13.4116 2.47509 15.662 2.47509 18.4305V25.5068C2.47509 28.2753 4.72552 30.5257 7.49401 30.5257H20.1007C22.8676 30.5257 25.1196 28.2753 25.1196 25.5068V18.4305C25.1196 15.662 22.8676 13.4116 20.1007 13.4116H7.49401ZM20.1004 33.0001H7.49374C3.3608 33.0001 0 29.6393 0 25.5063V18.43C0 14.2971 3.3608 10.9363 7.49374 10.9363H20.1004C24.2334 10.9363 27.5942 14.2971 27.5942 18.43V25.5063C27.5942 29.6393 24.2334 33.0001 20.1004 33.0001Z" fill="#001833"/>
<path fill-rule="evenodd" clip-rule="evenodd" d="M13.7956 25.0375C13.1126 25.0375 12.5582 24.4831 12.5582 23.8001V20.1357C12.5582 19.4527 13.1126 18.8983 13.7956 18.8983C14.4787 18.8983 15.033 19.4527 15.033 20.1357V23.8001C15.033 24.4831 14.4787 25.0375 13.7956 25.0375Z" fill="#001833"/>
<path fill-rule="evenodd" clip-rule="evenodd" d="M7.49401 13.4116C4.72552 13.4116 2.47509 15.662 2.47509 18.4305V25.5068C2.47509 28.2753 4.72552 30.5257 7.49401 30.5257H20.1007C22.8676 30.5257 25.1196 28.2753 25.1196 25.5068V18.4305C25.1196 15.662 22.8676 13.4116 20.1007 13.4116H7.49401ZM20.1004 33.0001H7.49374C3.3608 33.0001 0 29.6393 0 25.5063V18.43C0 14.2971 3.3608 10.9363 7.49374 10.9363H20.1004C24.2334 10.9363 27.5942 14.2971 27.5942 18.43V25.5063C27.5942 29.6393 24.2334 33.0001 20.1004 33.0001Z" fill="#001833"/>
<path fill-rule="evenodd" clip-rule="evenodd" d="M7.49401 13.4116C4.72552 13.4116 2.47509 15.662 2.47509 18.4305V25.5068C2.47509 28.2753 4.72552 30.5257 7.49401 30.5257H20.1007C22.8676 30.5257 25.1196 28.2753 25.1196 25.5068V18.4305C25.1196 15.662 22.8676 13.4116 20.1007 13.4116H7.49401ZM20.1004 33.0001H7.49374C3.3608 33.0001 0 29.6393 0 25.5063V18.43C0 14.2971 3.3608 10.9363 7.49374 10.9363H20.1004C24.2334 10.9363 27.5942 14.2971 27.5942 18.43V25.5063C27.5942 29.6393 24.2334 33.0001 20.1004 33.0001Z" fill="#001833"/>
</svg>
