<svg width="28" height="28" viewBox="0 0 28 28" fill="none" xmlns="http://www.w3.org/2000/svg">
<mask id="mask0_45_310" style="mask-type:alpha" maskUnits="userSpaceOnUse" x="0" y="0" width="28" height="28">
<rect width="28" height="28" fill="#D9D9D9"/>
</mask>
<g mask="url(#mask0_45_310)">
<path d="M9.46268 15.3935L15.2325 21.6543C15.6629 22.1213 15.6597 22.8413 15.2252 23.3045C14.7436 23.8179 13.9273 23.8143 13.4503 23.2967L6.24926 15.4829C5.54354 14.7171 5.54354 13.538 6.24926 12.7722L13.4503 4.95841C13.9273 4.44075 14.7436 4.43715 15.2252 4.95057C15.6597 5.41377 15.6629 6.13383 15.2325 6.60084L9.46268 12.8616H22.4009C23.1001 12.8616 23.6668 13.4284 23.6668 14.1275C23.6668 14.8267 23.1001 15.3935 22.4009 15.3935H9.46268Z" fill="#008FF6"/>
</g>
</svg>
