<svg width="47" height="62" viewBox="0 0 47 62" fill="none" xmlns="http://www.w3.org/2000/svg">
<path d="M44.1345 8.24255H33.8361V10.0499H13.1639V8.24255H2.86555C2.37077 8.24255 1.89626 8.44977 1.54641 8.81861C1.19655 9.18745 1 9.68771 1 10.2093V59.0731C1.0099 59.5878 1.21081 60.0779 1.5596 60.4381C1.90839 60.7984 2.37726 61.0001 2.86555 61H44.1345C44.6292 61 45.1037 60.7928 45.4536 60.424C45.8035 60.0551 46 59.5549 46 59.0332V10.2093C46 9.68771 45.8035 9.18745 45.4536 8.81861C45.1037 8.44977 44.6292 8.24255 44.1345 8.24255V8.24255Z" stroke="#008FF6" stroke-width="2" stroke-miterlimit="10"/>
<path d="M33.8361 4.48173H27.7731C27.7731 2.55482 25.8571 1 23.5 1C21.1428 1 19.2268 2.52824 19.2268 4.48173H13.1638V10.0498H33.8361V4.48173Z" stroke="#008FF6" stroke-width="2" stroke-miterlimit="10"/>
<path d="M38.3614 18.103H8.65128C7.94816 18.103 7.37817 18.7039 7.37817 19.4452V19.4584C7.37817 20.1997 7.94816 20.8006 8.65128 20.8006H38.3614C39.0645 20.8006 39.6345 20.1997 39.6345 19.4584V19.4452C39.6345 18.7039 39.0645 18.103 38.3614 18.103Z" stroke="#008FF6" stroke-width="2" stroke-miterlimit="10"/>
<path d="M38.3614 27.6977H8.65128C7.94816 27.6977 7.37817 28.2986 7.37817 29.0399V29.0532C7.37817 29.7944 7.94816 30.3954 8.65128 30.3954H38.3614C39.0645 30.3954 39.6345 29.7944 39.6345 29.0532V29.0399C39.6345 28.2986 39.0645 27.6977 38.3614 27.6977Z" stroke="#008FF6" stroke-width="2" stroke-miterlimit="10"/>
<path d="M38.3614 38.701H8.65128C7.94816 38.701 7.37817 39.3019 7.37817 40.0432V40.0565C7.37817 40.7977 7.94816 41.3987 8.65128 41.3987H38.3614C39.0645 41.3987 39.6345 40.7977 39.6345 40.0565V40.0432C39.6345 39.3019 39.0645 38.701 38.3614 38.701Z" stroke="#008FF6" stroke-width="2" stroke-miterlimit="10"/>
<path d="M38.3614 49.691H8.65128C7.94816 49.691 7.37817 50.292 7.37817 51.0332V51.0465C7.37817 51.7878 7.94816 52.3887 8.65128 52.3887H38.3614C39.0645 52.3887 39.6345 51.7878 39.6345 51.0465V51.0332C39.6345 50.292 39.0645 49.691 38.3614 49.691Z" stroke="#008FF6" stroke-width="2" stroke-miterlimit="10"/>
</svg>
