<svg width="48" height="48" viewBox="0 0 48 48" fill="none" xmlns="http://www.w3.org/2000/svg" xmlns:xlink="http://www.w3.org/1999/xlink">
<path d="M32.5,13C32.5,18.384 28.563,22.5 24,22.5L24,25.5C30.483,25.5 35.5,19.766 35.5,13L32.5,13ZM24,22.5C19.437,22.5 15.5,18.384 15.5,13L12.5,13C12.5,19.766 17.517,25.5 24,25.5L24,22.5ZM15.5,13C15.5,7.616 19.437,3.5 24,3.5L24,0.5C17.517,0.5 12.5,6.234 12.5,13L15.5,13ZM24,3.5C28.563,3.5 32.5,7.616 32.5,13L35.5,13C35.5,6.234 30.483,0.5 24,0.5L24,3.5Z" fill="#FFFFFF"/>
<path d="M44,44L44,45.5C44.482,45.5 44.935,45.268 45.217,44.877C45.499,44.485 45.576,43.982 45.423,43.525L44,44ZM4,44L2.577,43.525C2.424,43.982 2.501,44.485 2.783,44.877C3.065,45.268 3.518,45.5 4,45.5L4,44ZM45.423,43.525C43.96,39.146 41.089,35.339 37.238,32.643L35.518,35.101C38.855,37.437 41.323,40.722 42.577,44.475L45.423,43.525ZM37.238,32.643C33.388,29.948 28.752,28.5 24,28.5L24,31.5C28.146,31.5 32.179,32.764 35.518,35.101L37.238,32.643ZM24,28.5C19.248,28.5 14.612,29.948 10.762,32.643L12.482,35.101C15.821,32.764 19.854,31.5 24,31.5L24,28.5ZM10.762,32.643C6.911,35.339 4.04,39.146 2.577,43.525L5.423,44.475C6.677,40.722 9.144,37.437 12.482,35.101L10.762,32.643ZM4,45.5L44,45.5L44,42.5L4,42.5L4,45.5Z" fill="#FFFFFF"/>
</svg>
