<svg width="26" height="29" viewBox="0 0 26 29" fill="none" xmlns="http://www.w3.org/2000/svg">
<path d="M24.9368 25.0186L20.1322 19.4322C19.9153 19.1801 19.6214 19.04 19.313 19.04H18.5275C19.8575 17.062 20.6478 14.5742 20.6478 11.8678C20.6478 5.42974 16.1613 0.213135 10.6242 0.213135C5.08708 0.213135 0.600525 5.42974 0.600525 11.8678C0.600525 18.306 5.08708 23.5226 10.6242 23.5226C12.9518 23.5226 15.0915 22.6036 16.7926 21.0571V21.9705C16.7926 22.3291 16.9131 22.6709 17.1299 22.923L21.9345 28.5094C22.3875 29.0361 23.12 29.0361 23.5682 28.5094L24.932 26.9237C25.385 26.397 25.385 25.5453 24.9368 25.0186ZM10.6242 19.04C7.21711 19.04 4.45578 15.8349 4.45578 11.8678C4.45578 7.90637 7.21229 4.69572 10.6242 4.69572C14.0313 4.69572 16.7926 7.90076 16.7926 11.8678C16.7926 15.8293 14.0361 19.04 10.6242 19.04Z" fill="#008FF6"/>
</svg>
