<svg width="52" height="67" viewBox="0 0 52 67" fill="none" xmlns="http://www.w3.org/2000/svg">
<path d="M14.4307 65.9529H1V33.2882C1 32.6724 1.18665 32.0818 1.51889 31.6463C1.85113 31.2109 2.30175 30.9662 2.77161 30.9662H14.4307V65.9529ZM2.24491 64.384H13.1858V32.5979H2.77161C2.70244 32.5979 2.63395 32.6157 2.57005 32.6504C2.50615 32.6851 2.44809 32.736 2.39918 32.8001C2.35027 32.8642 2.31147 32.9403 2.285 33.024C2.25854 33.1078 2.24491 33.1976 2.24491 33.2882V64.384Z" stroke="#008FF6" stroke-width="1.2"/>
<path d="M51 65.9529H37.5574V30.9662H49.2284C49.6983 30.9662 50.1489 31.2109 50.4811 31.6463C50.8134 32.0818 51 32.6724 51 33.2882V65.9529ZM38.8143 64.384H49.7312V33.2882C49.7312 33.1078 49.6774 32.9346 49.5812 32.8055C49.485 32.6765 49.3541 32.602 49.2165 32.5979H38.8023L38.8143 64.384Z" stroke="#008FF6" stroke-width="1.2"/>
<path d="M26.6285 65.9529H13.1858V20.3447C13.1857 20.033 13.2334 19.7245 13.3261 19.4376C13.4189 19.1506 13.5548 18.8911 13.7257 18.6744C13.8966 18.4577 14.099 18.2884 14.3209 18.1764C14.5428 18.0644 14.7796 18.0122 15.0172 18.0227H26.6285V65.9529ZM14.4307 64.384H25.3716V19.6544H15.0172C14.8776 19.6544 14.7436 19.7271 14.6448 19.8565C14.546 19.986 14.4906 20.1616 14.4906 20.3447L14.4307 64.384Z" stroke="#008FF6" stroke-width="1.2"/>
<path d="M38.8502 66H25.3357V3.46319C25.3357 2.80991 25.5337 2.18339 25.8861 1.72145C26.2386 1.25951 26.7166 1 27.215 1H36.9708C37.4693 1 37.9473 1.25951 38.2997 1.72145C38.6522 2.18339 38.8502 2.80991 38.8502 3.46319V66ZM26.6644 64.2585H37.5215V3.46319C37.5215 3.27031 37.4639 3.08509 37.3609 2.94725C37.258 2.8094 37.118 2.72991 36.9708 2.7258H27.215C27.1417 2.72578 27.0691 2.74495 27.0015 2.7822C26.9339 2.81945 26.8727 2.87401 26.8214 2.9427C26.7701 3.01139 26.7298 3.09281 26.7028 3.18219C26.6759 3.27157 26.6628 3.3671 26.6644 3.46319V64.2585Z" stroke="#008FF6" stroke-width="1.2"/>
</svg>
